<svg width="20" height="20" viewBox="0 0 20 20" fill="none" xmlns="http://www.w3.org/2000/svg">
<path d="M16.7431 11.9381L16.904 10.3597C16.9898 9.51751 17.0464 8.96141 17.002 8.61104L17.0175 8.61113C17.7442 8.61113 18.3333 7.98931 18.3333 7.22224C18.3333 6.45518 17.7442 5.83335 17.0175 5.83335C16.2908 5.83335 15.7017 6.45518 15.7017 7.22224C15.7017 7.56915 15.8222 7.88636 16.0214 8.12977C15.7354 8.3161 15.3615 8.70928 14.7987 9.30107L14.7986 9.30108L14.7986 9.30109C14.365 9.75701 14.1482 9.98497 13.9064 10.0203C13.7724 10.0398 13.6358 10.0197 13.5121 9.9622C13.2887 9.85839 13.1398 9.57658 12.842 9.01295L11.2723 6.04206C11.0886 5.69435 10.9348 5.40333 10.7962 5.16914C11.3649 4.86286 11.7543 4.23871 11.7543 3.51854C11.7543 2.49579 10.9689 1.66669 9.99996 1.66669C9.03104 1.66669 8.24557 2.49579 8.24557 3.51854C8.24557 4.23871 8.63503 4.86286 9.20376 5.16914C9.06511 5.40335 8.91137 5.69432 8.72763 6.04206L7.1579 9.01295C6.8601 9.57658 6.71119 9.85839 6.48786 9.9622C6.36411 10.0197 6.22757 10.0398 6.09355 10.0203C5.85169 9.98497 5.63488 9.75701 5.20127 9.30108C4.63844 8.70929 4.26449 8.3161 3.97849 8.12977C4.17771 7.88635 4.29821 7.56915 4.29821 7.22224C4.29821 6.45518 3.70911 5.83335 2.98242 5.83335C2.25572 5.83335 1.66663 6.45518 1.66663 7.22224C1.66663 7.98931 2.25572 8.61113 2.98242 8.61113L2.99795 8.61104C2.95348 8.96141 3.01015 9.51751 3.09596 10.3597L3.2568 11.9381C3.34608 12.8142 3.42032 13.6478 3.51125 14.3982H16.4887C16.5796 13.6478 16.6538 12.8142 16.7431 11.9381Z" fill="white"/>
<path d="M9.04563 18.3334H10.9543C13.4419 18.3334 14.6858 18.3334 15.5157 17.5492C15.8779 17.207 16.1073 16.59 16.2728 15.7871H3.72711C3.89263 16.59 4.12201 17.207 4.48424 17.5492C5.31414 18.3334 6.55797 18.3334 9.04563 18.3334Z" fill="white"/>
</svg>
