<svg width="192" height="56" viewBox="0 0 192 56" fill="none" xmlns="http://www.w3.org/2000/svg">
<path d="M47.7859 46.9155C49.0303 46.9155 50.0259 45.92 50.0259 44.6756C50.0259 43.4311 49.0303 42.4355 47.7859 42.4355C46.5415 42.4355 45.5459 43.4311 45.5459 44.6756C45.5459 45.92 46.5415 46.9155 47.7859 46.9155Z" fill="#597DFC"/>
<path d="M40.6931 42.5601C39.6975 42.5601 38.8264 43.4312 38.8264 44.4267C38.8264 45.4223 39.6975 46.2934 40.6931 46.2934C41.6886 46.2934 42.5598 45.4223 42.5598 44.4267C42.4353 43.4312 41.6886 42.5601 40.6931 42.5601Z" fill="#597DFC"/>
<path d="M52.6406 47.6622C52.1429 47.6622 51.7695 48.0356 51.7695 48.5333C51.7695 49.0311 52.1429 49.4045 52.6406 49.4045C53.1384 49.4045 53.5118 49.0311 53.5118 48.5333C53.5118 48.0356 53.1384 47.6622 52.6406 47.6622Z" fill="#597DFC"/>
<path d="M44.3011 50.4C44.9233 50.4 45.5455 49.9022 45.5455 49.1556C45.5455 48.5334 45.0478 47.9111 44.3011 47.9111C43.6789 47.9111 43.0566 48.4089 43.0566 49.1556C43.1811 49.9022 43.6789 50.4 44.3011 50.4Z" fill="#597DFC"/>
<path d="M23.0218 17.5466C23.2707 17.5466 23.5195 17.6711 23.644 17.6711C25.0129 17.6711 26.0084 16.5511 26.0084 15.3066C26.0084 13.9378 24.8884 12.9422 23.644 12.9422C22.2751 12.9422 21.2795 14.0622 21.2795 15.3066C21.2795 16.1778 21.7773 17.0489 22.6484 17.4222C22.7729 17.4222 22.8973 17.5466 23.0218 17.5466Z" fill="#597DFC"/>
<path d="M39.3245 33.3511C41.0668 30.6133 42.0623 27.2533 42.0623 23.7689C42.0623 15.0578 35.8401 7.71553 27.5023 5.97331C26.2579 5.72442 25.0134 5.59998 23.6445 5.59998C13.689 5.59998 5.6001 13.6889 5.6001 23.7689C5.6001 32.2311 11.3245 39.4489 19.1645 41.44C17.9201 40.8177 9.20899 34.8444 9.33343 23.2711C9.33343 15.8044 15.6801 9.70664 23.1468 9.45775C31.2357 9.20886 37.9557 15.68 37.9557 23.7689C37.9557 29.7422 34.3468 34.8444 29.1201 36.96C28.0001 37.3333 24.2668 38.2044 21.0312 33.8489C18.9157 30.7377 19.1645 27.3777 19.289 26.3822C19.4134 24.5155 20.9068 23.1466 22.649 23.1466C22.7734 23.1466 22.8979 23.1466 23.0223 23.1466C25.1379 23.2711 26.5068 24.7644 26.3823 26.7555C26.2579 28.3733 25.8845 30.1155 25.1379 31.6089L25.0134 31.7333C24.889 31.9822 24.7645 32.2311 24.6401 32.48C24.5157 32.7289 24.5157 32.9777 24.5157 33.2266C24.6401 33.8489 25.2623 34.2222 25.8845 34.0977C26.2579 34.0977 26.5068 33.8489 26.6312 33.6C28.249 31.2355 29.369 28.8711 29.369 26.0089C29.369 24.2666 28.7468 22.6489 27.6268 21.5289C26.3823 20.2844 24.7645 19.6622 22.8979 19.6622C22.7734 19.6622 22.649 19.6622 22.5245 19.6622C21.529 19.6622 20.6579 19.9111 19.9112 20.2844C19.9112 20.2844 15.929 21.5289 15.5557 26.1333C15.1823 28.7466 15.4312 32.9777 19.289 37.2089C19.7868 37.7066 20.1601 38.2044 20.7823 38.7022C21.4045 39.2 22.0268 39.5733 22.7734 40.0711C23.1468 40.32 23.5201 40.4444 23.769 40.5689C24.3912 40.8177 25.1379 41.0666 25.8845 41.1911C27.5023 41.44 29.1201 41.1911 30.6134 40.5689C31.8579 40.0711 32.9779 39.4489 33.9734 38.7022L36.9601 41.44C37.7068 40.6933 38.8268 40.32 39.9468 40.32C41.689 40.32 43.3068 41.44 43.929 42.9333C44.3023 41.9378 45.1734 41.1911 46.169 40.8177L39.3245 33.3511Z" fill="#597DFC"/>
<path d="M87.8584 21.3422C86.8628 20.4711 85.3695 19.9733 83.6272 19.9733C82.6317 19.9733 81.5117 20.0978 80.3917 20.3467C79.2717 20.5956 78.4006 20.9689 77.7784 21.3422L77.6539 21.4667V24.3289L78.0272 23.9556C78.6495 23.4578 79.3961 23.0844 80.2672 22.96C81.1384 22.7111 82.0095 22.5867 82.8806 22.5867C85.3695 22.5867 86.6139 23.5822 86.6139 25.8222V27.1911C85.3695 26.5689 83.8761 26.32 82.0095 26.32C80.1428 26.32 78.7739 26.6933 77.6539 27.5644C76.6584 28.4356 76.0361 29.8044 76.0361 31.7955C76.0361 33.5378 76.6584 34.7822 77.9028 35.6533C79.1472 36.4 80.5161 36.7733 82.2584 36.7733C84.3739 36.7733 86.1161 36.5244 87.3606 36.0267C88.605 35.5289 89.3517 34.4089 89.3517 32.7911V25.3244C89.4761 23.5822 88.8539 22.2133 87.8584 21.3422ZM82.8806 34.16C81.7606 34.16 80.765 33.9111 80.0184 33.4133C79.2717 33.04 78.8984 32.2933 78.8984 31.2978C78.8984 30.4267 79.1472 29.8044 79.8939 29.3067C80.5161 28.8089 81.5117 28.56 82.7561 28.56C83.5028 28.56 84.2495 28.6844 84.9961 28.8089C85.6184 28.9333 86.2406 29.1822 86.7384 29.3067V32.5422C86.7384 33.04 86.4895 33.4133 85.9917 33.6622C85.245 34.0355 84.2495 34.16 82.8806 34.16Z" fill="#4B4E56"/>
<path d="M101.795 27.8133C101.173 27.5645 100.302 27.1911 99.3062 26.9422C98.4351 26.6933 97.8129 26.5689 97.4395 26.32C96.9418 26.1956 96.5684 25.9467 96.3195 25.5733C96.0706 25.3245 95.9462 24.9511 95.9462 24.4533C95.9462 23.8311 96.1951 23.4578 96.8173 23.0845C97.4395 22.7111 98.1862 22.5867 99.0573 22.5867C99.804 22.5867 100.426 22.7111 100.924 22.8356C101.422 23.0845 102.293 23.4578 103.288 23.9556L103.662 24.08V21.3422H103.288C102.293 20.9689 101.546 20.5956 100.924 20.4711C100.302 20.2222 99.5551 20.2222 98.8084 20.2222C97.9373 20.2222 96.9418 20.3467 96.0706 20.72C95.1995 21.0933 94.4529 21.5911 93.9551 22.2133C93.4573 22.96 93.084 23.8311 93.084 24.8267C93.084 25.8222 93.3329 26.6933 93.8306 27.3156C94.3284 27.9378 94.9507 28.4356 95.5729 28.6845C96.1951 28.9333 97.1906 29.3067 98.3106 29.5556L99.0573 29.9289C99.9284 30.3022 100.426 30.5511 100.8 30.8C101.173 31.0489 101.297 31.4222 101.297 32.0445C101.297 32.6667 101.048 33.1645 100.426 33.5378C100.053 33.9111 99.3062 34.16 98.3106 34.16C97.4395 34.16 96.6929 34.0356 95.9462 33.7867C95.324 33.5378 94.4529 33.1645 93.4573 32.5422L93.084 32.2933V35.1556L93.2084 35.28C94.0795 35.7778 94.9506 36.0267 95.6973 36.2756C96.444 36.5245 97.4395 36.6489 98.4351 36.6489C99.4306 36.6489 100.302 36.5245 101.173 36.1511C102.044 35.7778 102.791 35.28 103.413 34.5333C104.035 33.7867 104.284 32.7911 104.284 31.7956C104.284 30.6756 104.035 29.9289 103.537 29.3067C103.04 28.56 102.417 28.0622 101.795 27.8133Z" fill="#4B4E56"/>
<path d="M114.117 32.4178L109.513 20.3467H106.402L112.873 36.0267C112.499 37.2711 112.002 38.1422 111.504 38.7645C111.006 39.3867 110.508 39.6356 109.637 39.6356C109.264 39.6356 108.766 39.5111 108.393 39.3867L108.019 39.2622V41.8756L108.144 42C108.642 42.2489 109.139 42.2489 109.637 42.2489C110.508 42.2489 111.504 41.8756 112.375 41.2534C113.246 40.5067 113.993 39.3867 114.739 37.6445L121.459 20.4711H118.722L114.117 32.4178Z" fill="#4B4E56"/>
<path d="M128.179 32.6667H124.57V36.2756H128.179V32.6667Z" fill="#4B4E56"/>
<path d="M133.529 36.7733C133.529 37.52 133.404 38.0177 133.28 38.3911C133.155 38.7644 132.907 39.0133 132.533 39.2622C132.16 39.5111 131.538 39.6355 130.667 39.6355H130.418V42.1244H130.667C132.533 42.1244 133.902 41.6266 134.898 40.7555C135.769 39.8844 136.267 38.5155 136.267 36.7733V20.3466H133.529V36.7733Z" fill="#4B4E56"/>
<path d="M136.39 14.6223H133.404V17.4845H136.39V14.6223Z" fill="#4B4E56"/>
<path d="M147.342 20.0978C144.978 20.0978 143.236 20.8444 141.991 22.2133C140.747 23.5822 140.125 25.6978 140.125 28.3111C140.125 31.0489 140.747 33.04 141.991 34.5333C143.236 36.0267 145.102 36.7733 147.467 36.7733C149.831 36.7733 151.573 36.0267 152.818 34.5333C154.062 33.04 154.685 31.0489 154.685 28.4356C154.685 25.8222 154.062 23.8311 152.818 22.4622C151.698 20.8444 149.707 20.0978 147.342 20.0978ZM151.947 28.3111C151.947 32.1689 150.453 34.16 147.342 34.16C144.231 34.16 142.738 32.2933 142.738 28.3111C142.738 24.4533 144.231 22.5867 147.342 22.5867C148.96 22.5867 150.205 23.0844 150.827 24.08C151.573 24.9511 151.947 26.4444 151.947 28.3111Z" fill="#4B4E56"/>
<path d="M164.888 20.0978C164.39 20.0978 163.644 20.2222 162.897 20.3467C162.275 20.4711 161.652 20.72 161.03 20.8444V13.7511H158.292V33.2889C158.292 35.5289 160.408 36.6489 164.764 36.6489C166.755 36.6489 168.497 36.0267 169.99 34.7822C171.484 33.5378 172.23 31.2978 172.23 28.0622C172.23 25.5733 171.608 23.5822 170.364 22.2133C169.119 20.8444 167.252 20.0978 164.888 20.0978ZM169.368 28.0622C169.368 29.9289 168.995 31.4222 168.372 32.5422C167.75 33.5378 166.381 34.16 164.515 34.16C163.519 34.16 162.772 34.0356 162.026 33.7867C161.155 33.5378 161.155 33.04 161.155 32.7911V23.5822C161.777 23.3333 162.275 23.0844 163.021 22.8355C163.768 22.7111 164.39 22.5867 165.012 22.5867C166.506 22.5867 167.626 23.0844 168.372 23.9555C168.995 24.9511 169.368 26.32 169.368 28.0622Z" fill="#4B4E56"/>
<path d="M185.547 29.1822C185.049 28.56 184.427 28.0622 183.805 27.8133C183.183 27.5644 182.312 27.1911 181.316 26.9422C180.445 26.6933 179.823 26.5689 179.449 26.32C178.952 26.1956 178.578 25.9467 178.329 25.5733C178.08 25.3244 177.956 24.9511 177.956 24.4533C177.956 23.8311 178.205 23.4578 178.827 23.0844C179.449 22.7111 180.196 22.5867 181.067 22.5867C181.814 22.5867 182.436 22.7111 182.934 22.8356C183.432 23.0844 184.303 23.4578 185.298 23.9556L185.672 24.08V21.3422L185.547 21.2178C184.552 20.8444 183.805 20.4711 183.183 20.3467C182.56 20.0978 181.814 20.0978 181.067 20.0978C180.196 20.0978 179.2 20.2222 178.329 20.5956C177.458 20.9689 176.712 21.4667 176.214 22.0889C175.716 22.8356 175.343 23.7067 175.343 24.7022C175.343 25.6978 175.592 26.5689 176.089 27.1911C176.587 27.8133 177.209 28.3111 177.832 28.56C178.454 28.8089 179.449 29.1822 180.569 29.4311L181.316 29.8044C182.187 30.1778 182.685 30.4267 183.058 30.6756C183.432 30.9244 183.556 31.2978 183.556 31.92C183.556 32.5422 183.307 33.04 182.685 33.4133C182.063 33.7867 181.316 34.0356 180.32 34.0356C179.449 34.0356 178.703 33.9111 177.956 33.6622C177.334 33.4133 176.463 33.04 175.467 32.4178L175.094 32.1689V35.0311L175.218 35.1556C176.089 35.6533 176.96 35.9022 177.707 36.1511C178.454 36.4 179.449 36.5245 180.445 36.5245C181.44 36.5245 182.312 36.4 183.183 36.0267C184.054 35.6533 184.8 35.1556 185.423 34.4089C186.045 33.6622 186.294 32.6667 186.294 31.6711C186.169 30.6756 185.92 29.8044 185.547 29.1822Z" fill="#4B4E56"/>
<path d="M73.1734 28.9333V28.6844C73.1734 26.0711 72.6756 24.08 71.5556 22.4622C70.4356 20.8444 68.5689 20.0978 66.2045 20.0978C63.9645 20.0978 62.2223 20.8444 61.1023 22.2133C59.8578 23.5822 59.2356 25.6978 59.2356 28.3111C59.2356 30.9244 59.8578 33.1644 61.2267 34.5333C62.4712 35.9022 64.3378 36.6489 66.7023 36.6489C68.8178 36.6489 70.6845 36.2756 72.1778 35.5289L72.3023 35.4045V32.5422L71.9289 32.7911C70.56 33.6622 68.8178 34.0356 66.8267 34.0356C65.3334 34.0356 64.0889 33.5378 63.3423 32.6667C62.5956 31.7956 62.0978 30.4267 62.0978 28.8089C62.0978 28.0622 62.0978 27.1911 62.2223 26.4444V26.32C62.4712 24.9511 62.8445 23.9556 63.4667 23.4578C64.0889 22.8356 65.0845 22.5867 66.3289 22.5867C67.5734 22.5867 68.6934 22.96 69.3156 23.5822C69.9378 24.2044 70.3112 25.0756 70.4356 26.4444H61.6V28.9333H73.1734Z" fill="#4B4E56"/>
</svg>
